<svg width="60" height="44" viewBox="0 0 60 44" fill="none" xmlns="http://www.w3.org/2000/svg">
    <g filter="url(#filter0_i_507_13921)">
        <path d="M2.988 35V9.8H15.3C18.468 9.8 20.844 10.4 22.428 11.6C24.036 12.8 24.84 14.384 24.84 16.352C24.84 17.672 24.516 18.824 23.868 19.808C23.22 20.768 22.332 21.512 21.204 22.04C20.076 22.568 18.78 22.832 17.316 22.832L18 21.356C19.584 21.356 20.988 21.62 22.212 22.148C23.436 22.652 24.384 23.408 25.056 24.416C25.752 25.424 26.1 26.66 26.1 28.124C26.1 30.284 25.248 31.976 23.544 33.2C21.84 34.4 19.332 35 16.02 35H2.988ZM8.784 30.608H15.588C17.1 30.608 18.24 30.368 19.008 29.888C19.8 29.384 20.196 28.592 20.196 27.512C20.196 26.456 19.8 25.676 19.008 25.172C18.24 24.644 17.1 24.38 15.588 24.38H8.352V20.132H14.58C15.996 20.132 17.076 19.892 17.82 19.412C18.588 18.908 18.972 18.152 18.972 17.144C18.972 16.16 18.588 15.428 17.82 14.948C17.076 14.444 15.996 14.192 14.58 14.192H8.784V30.608Z"
              fill="#1F2223"/>
        <path d="M42.6833 35.432C40.6913 35.432 38.8553 35.12 37.1753 34.496C35.5193 33.848 34.0673 32.936 32.8193 31.76C31.5953 30.584 30.6353 29.204 29.9393 27.62C29.2673 26.036 28.9313 24.296 28.9313 22.4C28.9313 20.504 29.2673 18.764 29.9393 17.18C30.6353 15.596 31.6073 14.216 32.8553 13.04C34.1033 11.864 35.5673 10.964 37.2473 10.34C38.9273 9.692 40.7753 9.368 42.7913 9.368C45.0233 9.368 47.0273 9.74 48.8033 10.484C50.6033 11.228 52.1153 12.308 53.3393 13.724L49.5953 17.18C48.6833 16.22 47.6873 15.512 46.6073 15.056C45.5273 14.576 44.3513 14.336 43.0793 14.336C41.8553 14.336 40.7393 14.528 39.7313 14.912C38.7233 15.296 37.8473 15.848 37.1033 16.568C36.3833 17.288 35.8193 18.14 35.4113 19.124C35.0273 20.108 34.8353 21.2 34.8353 22.4C34.8353 23.576 35.0273 24.656 35.4113 25.64C35.8193 26.624 36.3833 27.488 37.1033 28.232C37.8473 28.952 38.7113 29.504 39.6953 29.888C40.7033 30.272 41.8073 30.464 43.0073 30.464C44.1593 30.464 45.2753 30.284 46.3553 29.924C47.4593 29.54 48.5273 28.904 49.5593 28.016L52.8713 32.228C51.5033 33.26 49.9073 34.052 48.0833 34.604C46.2833 35.156 44.4833 35.432 42.6833 35.432ZM47.5433 31.472V22.004H52.8713V32.228L47.5433 31.472Z"
              fill="#98B3DB"/>
    </g>
    <defs>
        <filter id="filter0_i_507_13921" x="2.98801" y="9.36798" width="50.3513" height="30.064"
                filterUnits="userSpaceOnUse" color-interpolation-filters="sRGB">
            <feFlood flood-opacity="0" result="BackgroundImageFix"/>
            <feBlend mode="normal" in="SourceGraphic" in2="BackgroundImageFix" result="shape"/>
            <feColorMatrix in="SourceAlpha" type="matrix" values="0 0 0 0 0 0 0 0 0 0 0 0 0 0 0 0 0 0 127 0"
                           result="hardAlpha"/>
            <feOffset dy="4"/>
            <feGaussianBlur stdDeviation="2"/>
            <feComposite in2="hardAlpha" operator="arithmetic" k2="-1" k3="1"/>
            <feColorMatrix type="matrix" values="0 0 0 0 0 0 0 0 0 0 0 0 0 0 0 0 0 0 0.25 0"/>
            <feBlend mode="normal" in2="shape" result="effect1_innerShadow_507_13921"/>
        </filter>
    </defs>
</svg>
