<svg width="21" height="20" viewBox="0 0 21 20" fill="none" xmlns="http://www.w3.org/2000/svg">
    <path d="M19.5 7.00001L19.5 1.00001M19.5 1.00001H13.5M19.5 1.00001L10.5 10M8.5 1H6.3C4.61984 1 3.77976 1 3.13803 1.32698C2.57354 1.6146 2.1146 2.07354 1.82698 2.63803C1.5 3.27976 1.5 4.11984 1.5 5.8V14.2C1.5 15.8802 1.5 16.7202 1.82698 17.362C2.1146 17.9265 2.57354 18.3854 3.13803 18.673C3.77976 19 4.61984 19 6.3 19H14.7C16.3802 19 17.2202 19 17.862 18.673C18.4265 18.3854 18.8854 17.9265 19.173 17.362C19.5 16.7202 19.5 15.8802 19.5 14.2V12"
          stroke="#344054" stroke-width="2" stroke-linecap="round" stroke-linejoin="round"/>
</svg>
